<svg width="712" height="711" viewBox="0 0 712 711" fill="none" xmlns="http://www.w3.org/2000/svg">
<path fill-rule="evenodd" clip-rule="evenodd" d="M805.011 142.928C862.61 215.965 907.755 309.854 890.724 401.306C874.422 488.846 786.645 539.102 720.193 598.385C668.125 644.836 615.847 693.155 547.553 707.456C483.357 720.9 422.605 688.119 358.533 674.12C284.69 657.987 203.935 665.666 144.219 619.336C73.3375 564.344 -14.466 486.173 2.79895 398.13C20.772 306.475 154.369 298.642 220.117 232.294C270.809 181.14 278.497 97.0137 339.354 58.5041C410.101 13.7364 496.187 -9.45709 578.558 5.47685C667.627 21.6252 748.961 71.8566 805.011 142.928Z" fill="#F8D7A4"/>
</svg>
